<svg width="62" height="62" viewBox="0 0 62 62" fill="none" xmlns="http://www.w3.org/2000/svg">
<g filter="url(#filter0_ii_6910_41231)">
<rect x="1" y="1" width="60" height="60" rx="10" fill="#1C1B30"/>
<g clip-path="url(#clip0_6910_41231)">
<path d="M20.1615 25.7173C19.6446 25.7173 19.206 25.8975 18.8455 26.2581C18.485 26.6186 18.3047 27.0512 18.3047 27.5561V35.3084C18.3047 35.826 18.4849 36.2642 18.8455 36.6247C19.206 36.9852 19.6446 37.1655 20.1615 37.1655C20.678 37.1655 21.1139 36.9853 21.4688 36.6247C21.8231 36.2642 22.0007 35.826 22.0007 35.3084V27.5561C22.0007 27.0511 21.8204 26.6186 21.4598 26.2581C21.0993 25.8975 20.6664 25.7173 20.1615 25.7173Z" fill="white"/>
<path d="M35.0879 18.7582L36.368 16.3968C36.452 16.2405 36.4221 16.1206 36.2781 16.0363C36.1217 15.9636 36.0015 16.0004 35.9175 16.1442L34.6196 18.5244C33.4774 18.0195 32.2695 17.7665 30.9956 17.7665C29.7215 17.7665 28.5134 18.0195 27.3718 18.5244L26.0737 16.1442C25.9894 16.0004 25.8692 15.9639 25.7132 16.0363C25.5688 16.121 25.5389 16.2405 25.6233 16.3968L26.9034 18.7582C25.6054 19.4201 24.5716 20.342 23.8024 21.5259C23.0332 22.7103 22.6484 24.0047 22.6484 25.4113H39.3247C39.3247 24.0051 38.9399 22.7106 38.1708 21.5259C37.4015 20.342 36.3737 19.4201 35.0879 18.7582ZM27.6871 22.1929C27.5487 22.3316 27.3834 22.4007 27.1912 22.4007C26.9986 22.4007 26.8366 22.3316 26.7045 22.1929C26.5723 22.0547 26.5063 21.8901 26.5063 21.6972C26.5063 21.505 26.5723 21.34 26.7045 21.2016C26.8366 21.0635 26.999 20.9944 27.1912 20.9944C27.3834 20.9944 27.5487 21.0635 27.6871 21.2016C27.8252 21.3403 27.8946 21.505 27.8946 21.6972C27.8942 21.8897 27.8249 22.0547 27.6871 22.1929ZM35.2861 22.1929C35.1537 22.3316 34.9913 22.4007 34.7994 22.4007C34.6068 22.4007 34.4415 22.3316 34.3034 22.1929C34.165 22.0547 34.0959 21.8901 34.0959 21.6972C34.0959 21.505 34.165 21.34 34.3034 21.2016C34.4415 21.0635 34.6068 20.9944 34.7994 20.9944C34.9916 20.9944 35.1536 21.0635 35.2861 21.2016C35.4183 21.3403 35.4843 21.505 35.4843 21.6972C35.4843 21.8897 35.4183 22.0547 35.2861 22.1929Z" fill="white"/>
<path d="M22.7188 38.0669C22.7188 38.6203 22.9109 39.0887 23.2954 39.4732C23.6801 39.8576 24.1486 40.0498 24.7016 40.0498H26.0358L26.0541 44.1428C26.0541 44.6596 26.2344 45.0985 26.5949 45.4591C26.9554 45.8197 27.3883 45.9999 27.8929 45.9999C28.4095 45.9999 28.8483 45.8197 29.2089 45.4591C29.5694 45.0985 29.7497 44.6597 29.7497 44.1428V40.0502H32.2376V44.1428C32.2376 44.6596 32.4178 45.0985 32.7783 45.4591C33.1389 45.8197 33.5774 45.9999 34.0943 45.9999C34.6109 45.9999 35.0497 45.8197 35.4103 45.4591C35.7709 45.0985 35.9511 44.6597 35.9511 44.1428V40.0502H37.3033C37.8441 40.0502 38.3065 39.8579 38.6916 39.4735C39.076 39.0891 39.2683 38.6206 39.2683 38.0673V26.0596H22.7188V38.0669Z" fill="white"/>
<path d="M41.831 25.7173C41.3261 25.7173 40.8935 25.8949 40.533 26.2491C40.1724 26.604 39.9922 27.0399 39.9922 27.5561V35.3084C39.9922 35.826 40.1724 36.2642 40.533 36.6247C40.8935 36.9853 41.3264 37.1655 41.831 37.1655C42.3476 37.1655 42.7864 36.9853 43.147 36.6247C43.5076 36.2642 43.6878 35.826 43.6878 35.3084V27.5561C43.6878 27.0398 43.5076 26.604 43.147 26.2491C42.7864 25.8949 42.3476 25.7173 41.831 25.7173Z" fill="white"/>
</g>
<rect x="1" y="1" width="60" height="60" rx="10" stroke="#6C5DD3"/>
</g>
<defs>
<filter id="filter0_ii_6910_41231" x="-2.5" y="-2.5" width="67" height="67" filterUnits="userSpaceOnUse" color-interpolation-filters="sRGB">
<feFlood flood-opacity="0" result="BackgroundImageFix"/>
<feBlend mode="normal" in="SourceGraphic" in2="BackgroundImageFix" result="shape"/>
<feColorMatrix in="SourceAlpha" type="matrix" values="0 0 0 0 0 0 0 0 0 0 0 0 0 0 0 0 0 0 127 0" result="hardAlpha"/>
<feOffset dx="3" dy="3"/>
<feGaussianBlur stdDeviation="2.5"/>
<feComposite in2="hardAlpha" operator="arithmetic" k2="-1" k3="1"/>
<feColorMatrix type="matrix" values="0 0 0 0 0.6375 0 0 0 0 0.6375 0 0 0 0 0.6375 0 0 0 0.2 0"/>
<feBlend mode="normal" in2="shape" result="effect1_innerShadow_6910_41231"/>
<feColorMatrix in="SourceAlpha" type="matrix" values="0 0 0 0 0 0 0 0 0 0 0 0 0 0 0 0 0 0 127 0" result="hardAlpha"/>
<feOffset dx="-3" dy="-3"/>
<feGaussianBlur stdDeviation="3"/>
<feComposite in2="hardAlpha" operator="arithmetic" k2="-1" k3="1"/>
<feColorMatrix type="matrix" values="0 0 0 0 0.0708333 0 0 0 0 0.0708333 0 0 0 0 0.0708333 0 0 0 0.25 0"/>
<feBlend mode="normal" in2="effect1_innerShadow_6910_41231" result="effect2_innerShadow_6910_41231"/>
</filter>
<clipPath id="clip0_6910_41231">
<rect width="30" height="30" fill="white" transform="translate(16 16)"/>
</clipPath>
</defs>
</svg>
