<svg width="62" height="62" viewBox="0 0 62 62" fill="none" xmlns="http://www.w3.org/2000/svg">
<g filter="url(#filter0_ii_6910_41191)">
<rect x="1" y="1" width="60" height="60" rx="10" fill="#1C1B30"/>
<path d="M36.7725 16C36.8424 16 36.9122 16 36.9859 16C37.1572 18.1157 36.3497 19.6965 35.3682 20.8413C34.4053 21.9781 33.0866 23.0808 30.9538 22.9135C30.8115 20.8281 31.6204 19.3645 32.6005 18.2224C33.5095 17.158 35.1759 16.2108 36.7725 16Z" fill="white"/>
<path d="M43.2313 38.021C43.2313 38.042 43.2313 38.0605 43.2313 38.0802C42.632 39.8956 41.777 41.4513 40.7337 42.8952C39.7812 44.2059 38.614 45.9699 36.53 45.9699C34.7292 45.9699 33.533 44.8119 31.6874 44.7803C29.7351 44.7487 28.6615 45.7485 26.8765 46.0002C26.6723 46.0002 26.4681 46.0002 26.2678 46.0002C24.9571 45.8105 23.8992 44.7724 23.1286 43.8371C20.8562 41.0733 19.1001 37.5032 18.7734 32.9347C18.7734 32.4868 18.7734 32.0402 18.7734 31.5923C18.9118 28.3226 20.5005 25.6642 22.6122 24.3759C23.7267 23.6908 25.2587 23.1073 26.9647 23.3681C27.6958 23.4814 28.4428 23.7317 29.0975 23.9793C29.718 24.2178 30.4939 24.6406 31.229 24.6183C31.7269 24.6038 32.2223 24.3442 32.7242 24.1611C34.1943 23.6302 35.6355 23.0216 37.5351 23.3075C39.8181 23.6526 41.4384 24.667 42.4396 26.232C40.5084 27.4611 38.9816 29.3133 39.2424 32.4762C39.4743 35.3494 41.1447 37.0303 43.2313 38.021Z" fill="white"/>
<rect x="1" y="1" width="60" height="60" rx="10" stroke="#6C5DD3"/>
</g>
<defs>
<filter id="filter0_ii_6910_41191" x="-2.5" y="-2.5" width="67" height="67" filterUnits="userSpaceOnUse" color-interpolation-filters="sRGB">
<feFlood flood-opacity="0" result="BackgroundImageFix"/>
<feBlend mode="normal" in="SourceGraphic" in2="BackgroundImageFix" result="shape"/>
<feColorMatrix in="SourceAlpha" type="matrix" values="0 0 0 0 0 0 0 0 0 0 0 0 0 0 0 0 0 0 127 0" result="hardAlpha"/>
<feOffset dx="3" dy="3"/>
<feGaussianBlur stdDeviation="2.5"/>
<feComposite in2="hardAlpha" operator="arithmetic" k2="-1" k3="1"/>
<feColorMatrix type="matrix" values="0 0 0 0 0.6375 0 0 0 0 0.6375 0 0 0 0 0.6375 0 0 0 0.2 0"/>
<feBlend mode="normal" in2="shape" result="effect1_innerShadow_6910_41191"/>
<feColorMatrix in="SourceAlpha" type="matrix" values="0 0 0 0 0 0 0 0 0 0 0 0 0 0 0 0 0 0 127 0" result="hardAlpha"/>
<feOffset dx="-3" dy="-3"/>
<feGaussianBlur stdDeviation="3"/>
<feComposite in2="hardAlpha" operator="arithmetic" k2="-1" k3="1"/>
<feColorMatrix type="matrix" values="0 0 0 0 0.0708333 0 0 0 0 0.0708333 0 0 0 0 0.0708333 0 0 0 0.25 0"/>
<feBlend mode="normal" in2="effect1_innerShadow_6910_41191" result="effect2_innerShadow_6910_41191"/>
</filter>
</defs>
</svg>
