<svg width="62" height="62" viewBox="0 0 62 62" fill="none" xmlns="http://www.w3.org/2000/svg">
<g filter="url(#filter0_ii_6910_41319)">
<rect x="1" y="1" width="60" height="60" rx="10" fill="#1C1B30"/>
<path d="M31 43.5C37.9036 43.5 43.5 37.9036 43.5 31C43.5 24.0964 37.9036 18.5 31 18.5C24.0964 18.5 18.5 24.0964 18.5 31C18.5 37.9036 24.0964 43.5 31 43.5Z" fill="white"/>
<path d="M26.6466 24.8317L26.6584 25.1161C26.8491 24.8948 27.1059 24.7842 27.4297 24.7842C27.7934 24.7842 28.0409 24.9217 28.1728 25.1967C28.2591 25.0736 28.3716 24.9742 28.5103 24.8979C28.6491 24.8217 28.8134 24.7842 29.0022 24.7842C29.5722 24.7842 29.8628 25.0823 29.8722 25.6773V27.3948H29.4272V25.7029C29.4272 25.5198 29.3853 25.3829 29.3003 25.2917C29.2153 25.2011 29.0728 25.1554 28.8722 25.1554C28.7072 25.1554 28.5703 25.2042 28.4609 25.3011C28.3522 25.3986 28.2884 25.5292 28.2716 25.6929V27.3942H27.8247V25.7148C27.8247 25.3423 27.6397 25.1554 27.2697 25.1554C26.9778 25.1554 26.7784 25.2779 26.6709 25.5223V27.3942H26.2266V24.8304H26.6466V24.8317ZM32.6941 26.7961V25.6161C32.6878 25.3567 32.5934 25.1536 32.4134 25.0061C32.2334 24.8586 31.9834 24.7848 31.6647 24.7848C31.4641 24.7848 31.2797 24.8198 31.1116 24.8892C30.9434 24.9586 30.8109 25.0529 30.7134 25.1723C30.6153 25.2917 30.5666 25.4154 30.5666 25.5429H31.0416C31.0416 25.4311 31.0984 25.3354 31.2128 25.2567C31.3272 25.1779 31.4684 25.1386 31.6372 25.1386C31.8297 25.1386 31.9747 25.1842 32.0741 25.2748C32.1728 25.3661 32.2222 25.4879 32.2222 25.6411V25.8423H31.7622C31.3659 25.8423 31.0578 25.9161 30.8391 26.0636C30.6203 26.2111 30.5109 26.4186 30.5109 26.6854C30.5109 26.9054 30.5978 27.0861 30.7728 27.2292C30.9472 27.3723 31.1709 27.4436 31.4428 27.4436C31.7478 27.4436 32.0103 27.3379 32.2297 27.1261C32.2466 27.2554 32.2691 27.3454 32.2959 27.3961H32.7916V27.3579C32.7266 27.2186 32.6941 27.0317 32.6941 26.7961ZM32.2216 26.6779C32.1616 26.7917 32.0659 26.8842 31.9322 26.9548C31.7997 27.0261 31.6591 27.0611 31.5109 27.0611C31.3559 27.0611 31.2291 27.0223 31.1303 26.9448C31.0309 26.8673 30.9822 26.7604 30.9822 26.6223C30.9822 26.3079 31.2716 26.1511 31.8509 26.1511H32.2216V26.6779ZM34.4859 27.0848C34.6491 27.0848 34.7909 27.0373 34.9134 26.9423C35.0353 26.8479 35.1028 26.7292 35.1159 26.5873H35.5478C35.5397 26.7342 35.4866 26.8736 35.3897 27.0067C35.2928 27.1398 35.1634 27.2448 35.0009 27.3242C34.8384 27.4036 34.6672 27.4423 34.4859 27.4423C34.1222 27.4423 33.8328 27.3261 33.6172 27.0929C33.4022 26.8598 33.2947 26.5417 33.2947 26.1373V26.0636C33.2947 25.8142 33.3428 25.5923 33.4378 25.3979C33.5334 25.2036 33.6703 25.0529 33.8491 24.9454C34.0278 24.8379 34.2391 24.7842 34.4828 24.7842C34.7822 24.7842 35.0316 24.8704 35.2297 25.0423C35.4278 25.2142 35.5341 25.4379 35.5472 25.7129H35.1153C35.1022 25.5473 35.0366 25.4111 34.9191 25.3042C34.8016 25.1973 34.6559 25.1442 34.4834 25.1442C34.2516 25.1442 34.0716 25.2242 33.9441 25.3848C33.8166 25.5454 33.7522 25.7773 33.7522 26.0811V26.1636C33.7522 26.4592 33.8159 26.6861 33.9428 26.8461C34.0691 27.0054 34.2503 27.0848 34.4859 27.0848ZM31.0684 33.4336C31.0684 34.2167 30.9166 34.9004 30.6122 35.4842C30.3078 36.0679 29.8766 36.5129 29.3197 36.8211C28.7616 37.1286 28.1116 37.2823 27.3678 37.2823C26.6416 37.2823 25.9972 37.1279 25.4347 36.8186C24.8734 36.5092 24.4366 36.0679 24.1266 35.4954C23.8159 34.9223 23.6559 34.2586 23.6484 33.5048V32.9279C23.6484 32.1598 23.8022 31.4804 24.1103 30.8911C24.4191 30.3017 24.8547 29.8504 25.4191 29.5379C25.9828 29.2248 26.6284 29.0686 27.3547 29.0686C28.0941 29.0686 28.7459 29.2236 29.3097 29.5329C29.8741 29.8423 30.3078 30.2904 30.6122 30.8779C30.9166 31.4654 31.0684 32.1492 31.0684 32.9286V33.4336ZM29.9016 32.9242C29.9016 31.9761 29.6384 31.3217 29.1991 30.8148C28.7597 30.3079 28.1447 30.0542 27.3547 30.0542C26.5853 30.0542 25.9803 30.3079 25.5397 30.8148C25.0978 31.3217 24.8278 31.9992 24.8153 32.8992V33.4867C24.8153 34.4054 25.0809 34.9767 25.5272 35.5017C25.9722 36.0267 26.5859 36.2898 27.3678 36.2898C28.1541 36.2898 28.7616 36.0417 29.1928 35.5461C29.6241 35.0498 29.8891 34.4436 29.9016 33.5173V32.9242ZM35.0878 32.5598C34.3891 32.3723 33.2628 32.2604 33.2628 31.2286C33.2628 30.8217 33.6316 30.0298 34.9347 30.0298C36.3741 30.0298 36.6647 30.9348 36.6934 31.3536H37.8103C37.7872 30.9636 37.7528 30.5998 37.5303 30.2654C37.2822 29.8923 36.9316 29.5998 36.4797 29.3873C36.0272 29.1748 35.5122 29.0686 34.9347 29.0686C33.0628 29.0686 32.1253 30.1623 32.1253 31.2536C32.1253 31.8098 32.2903 32.4104 32.7234 32.7892C33.1559 33.1679 33.8228 33.3623 34.8022 33.6092C35.5859 33.8067 36.8053 34.0061 36.8053 35.1523C36.8053 35.5436 36.2041 36.3298 34.9922 36.3298C33.5116 36.3298 33.0603 35.3936 33.0334 34.9636H31.9159C31.9359 35.3842 32.1853 37.2823 34.9922 37.2823C37.4209 37.2823 37.9597 35.6711 37.9597 35.0236C37.9603 32.9092 35.7866 32.7467 35.0878 32.5598Z" fill="#7B7B7B"/>
<rect x="1" y="1" width="60" height="60" rx="10" stroke="#6C5DD3"/>
</g>
<defs>
<filter id="filter0_ii_6910_41319" x="-2.5" y="-2.5" width="67" height="67" filterUnits="userSpaceOnUse" color-interpolation-filters="sRGB">
<feFlood flood-opacity="0" result="BackgroundImageFix"/>
<feBlend mode="normal" in="SourceGraphic" in2="BackgroundImageFix" result="shape"/>
<feColorMatrix in="SourceAlpha" type="matrix" values="0 0 0 0 0 0 0 0 0 0 0 0 0 0 0 0 0 0 127 0" result="hardAlpha"/>
<feOffset dx="3" dy="3"/>
<feGaussianBlur stdDeviation="2.5"/>
<feComposite in2="hardAlpha" operator="arithmetic" k2="-1" k3="1"/>
<feColorMatrix type="matrix" values="0 0 0 0 0.6375 0 0 0 0 0.6375 0 0 0 0 0.6375 0 0 0 0.2 0"/>
<feBlend mode="normal" in2="shape" result="effect1_innerShadow_6910_41319"/>
<feColorMatrix in="SourceAlpha" type="matrix" values="0 0 0 0 0 0 0 0 0 0 0 0 0 0 0 0 0 0 127 0" result="hardAlpha"/>
<feOffset dx="-3" dy="-3"/>
<feGaussianBlur stdDeviation="3"/>
<feComposite in2="hardAlpha" operator="arithmetic" k2="-1" k3="1"/>
<feColorMatrix type="matrix" values="0 0 0 0 0.0708333 0 0 0 0 0.0708333 0 0 0 0 0.0708333 0 0 0 0.25 0"/>
<feBlend mode="normal" in2="effect1_innerShadow_6910_41319" result="effect2_innerShadow_6910_41319"/>
</filter>
</defs>
</svg>
